<?xml version="1.0" standalone="no"?>
<!DOCTYPE svg PUBLIC "-//W3C//DTD SVG 20010904//EN"
 "http://www.w3.org/TR/2001/REC-SVG-20010904/DTD/svg10.dtd">
<svg version="1.0" xmlns="http://www.w3.org/2000/svg"
 width="512.000000pt" height="512.000000pt" viewBox="0 0 512.000000 512.000000"
 preserveAspectRatio="xMidYMid meet">

<g transform="translate(0.000000,512.000000) scale(0.100000,-0.100000)"
fill="#000000" stroke="none">
<path d="M1445 4844 c-101 -25 -200 -80 -281 -158 -72 -70 -84 -90 -594 -974
-300 -521 -529 -928 -541 -964 -43 -128 -35 -309 20 -425 15 -32 256 -454 535
-938 496 -862 508 -881 580 -951 49 -47 99 -83 147 -107 144 -71 89 -68 1277
-65 l1067 3 73 27 c95 34 189 96 255 167 39 43 177 274 559 937 279 484 518
905 532 935 53 116 59 295 14 423 -13 37 -243 446 -538 957 -385 667 -528 906
-567 949 -66 71 -159 133 -255 168 l-73 27 -1075 2 c-912 1 -1084 -1 -1135
-13z m1169 -755 c60 -17 121 -85 136 -150 8 -39 10 -235 8 -699 l-3 -645 -28
-47 c-84 -144 -284 -137 -359 11 l-28 55 0 650 c0 392 4 665 10 686 13 49 66
109 114 131 47 21 94 24 150 8z m-705 -293 c52 -27 84 -80 89 -147 3 -35 -1
-72 -8 -90 -7 -17 -50 -63 -94 -102 -136 -118 -221 -226 -282 -356 -140 -294
-137 -625 7 -915 201 -405 647 -634 1094 -561 409 66 733 363 842 770 23 88
26 119 26 255 0 136 -3 167 -26 255 -32 120 -107 276 -175 366 -28 36 -100
112 -160 169 -91 85 -112 110 -122 146 -34 120 53 233 178 234 57 0 101 -24
198 -108 483 -419 620 -1124 330 -1696 -200 -393 -562 -665 -1002 -752 -133
-27 -396 -24 -531 4 -493 106 -887 447 -1051 913 -60 169 -77 275 -76 469 0
141 5 195 22 277 53 246 152 448 314 640 75 90 215 214 269 238 40 18 113 14
158 -9z"/>
</g>
</svg>
